<svg id="svg" version="1.1" xmlns="http://www.w3.org/2000/svg" xmlns:xlink="http://www.w3.org/1999/xlink" width="400" height="373.43750000000006" viewBox="0, 0, 400,373.43750000000006"><g id="svgg"><path id="path0" d="M144.533 133.247 C 142.374 135.451,140.125 137.591,139.536 138.002 C 138.947 138.413,136.983 140.177,135.173 141.923 C 133.363 143.669,131.242 145.706,130.460 146.450 C 129.678 147.194,128.534 148.383,127.918 149.092 C 127.302 149.802,126.503 150.490,126.144 150.623 C 125.784 150.755,125.490 151.121,125.490 151.436 C 125.490 151.750,125.207 152.007,124.860 152.007 C 124.514 152.007,122.163 154.108,119.636 156.676 C 117.109 159.244,114.950 161.345,114.838 161.345 C 114.726 161.345,114.059 161.891,113.355 162.558 C 112.652 163.226,111.404 164.360,110.584 165.079 C 109.352 166.158,109.088 166.631,109.074 167.787 L 109.057 169.188 191.948 169.188 C 246.806 169.188,274.917 169.314,275.070 169.561 C 275.197 169.767,276.205 169.935,277.311 169.935 C 278.416 169.935,279.425 170.103,279.552 170.308 C 279.679 170.514,280.529 170.682,281.441 170.682 C 282.354 170.682,283.100 170.850,283.100 171.055 C 283.100 171.261,283.688 171.429,284.407 171.429 C 285.126 171.429,285.714 171.597,285.714 171.802 C 285.714 172.007,286.218 172.176,286.835 172.176 C 287.451 172.176,287.955 172.344,287.955 172.549 C 287.955 172.754,288.459 172.923,289.076 172.923 C 289.692 172.923,290.196 173.091,290.196 173.296 C 290.196 173.501,290.490 173.675,290.850 173.681 C 291.209 173.688,291.830 173.940,292.228 174.242 C 292.627 174.543,293.257 174.790,293.629 174.790 C 294.000 174.790,294.304 174.958,294.304 175.163 C 294.304 175.369,294.641 175.537,295.051 175.537 C 295.462 175.537,295.798 175.705,295.798 175.910 C 295.798 176.116,296.134 176.284,296.545 176.284 C 296.956 176.284,297.292 176.425,297.292 176.599 C 297.292 176.772,298.091 177.316,299.066 177.807 C 300.042 178.299,300.924 178.788,301.027 178.894 C 301.130 179.000,301.718 179.337,302.334 179.643 C 302.951 179.950,303.727 180.496,304.059 180.856 C 304.391 181.217,304.856 181.513,305.092 181.513 C 305.329 181.513,306.095 182.059,306.794 182.726 C 308.812 184.652,309.947 185.621,310.182 185.621 C 310.662 185.621,317.460 192.909,317.460 193.423 C 317.460 193.599,318.049 194.245,318.768 194.859 C 319.486 195.473,320.075 196.183,320.075 196.437 C 320.075 196.691,320.579 197.370,321.195 197.946 C 321.811 198.522,322.316 199.345,322.316 199.776 C 322.316 200.207,322.484 200.560,322.689 200.560 C 322.894 200.560,323.063 200.896,323.063 201.307 C 323.063 201.718,323.211 202.054,323.392 202.054 C 323.574 202.054,323.816 202.348,323.930 202.708 C 324.142 203.378,325.330 205.455,325.693 205.789 C 325.804 205.892,326.132 206.712,326.422 207.612 C 326.712 208.513,327.167 209.467,327.434 209.733 C 327.700 210.000,327.918 210.566,327.918 210.991 C 327.918 211.417,328.086 211.765,328.291 211.765 C 328.497 211.765,328.665 212.185,328.665 212.698 C 328.665 213.212,328.833 213.632,329.038 213.632 C 329.244 213.632,329.412 214.136,329.412 214.753 C 329.412 215.369,329.580 215.873,329.785 215.873 C 329.991 215.873,330.159 216.535,330.159 217.345 C 330.159 218.154,330.327 218.921,330.532 219.048 C 330.738 219.175,330.906 219.941,330.906 220.750 C 330.906 221.560,331.074 222.222,331.279 222.222 C 331.495 222.222,331.653 223.398,331.653 225.001 C 331.653 226.530,331.821 227.884,332.026 228.011 C 332.253 228.152,332.400 230.941,332.400 235.129 C 332.400 239.472,332.262 242.017,332.026 242.017 C 331.813 242.017,331.653 243.130,331.653 244.609 C 331.653 246.035,331.485 247.305,331.279 247.432 C 331.074 247.559,330.906 248.325,330.906 249.135 C 330.906 249.945,330.738 250.607,330.532 250.607 C 330.327 250.607,330.159 251.279,330.159 252.101 C 330.159 252.923,329.991 253.595,329.785 253.595 C 329.580 253.595,329.412 254.099,329.412 254.715 C 329.412 255.331,329.244 255.836,329.038 255.836 C 328.833 255.836,328.665 256.246,328.665 256.747 C 328.665 257.249,328.497 257.763,328.291 257.890 C 328.086 258.017,327.918 258.699,327.918 259.406 C 327.918 260.231,327.739 260.691,327.418 260.691 C 326.895 260.691,326.050 262.201,326.050 263.136 C 326.050 263.435,325.882 263.679,325.677 263.679 C 325.472 263.679,325.303 264.015,325.303 264.426 C 325.303 264.837,325.135 265.173,324.930 265.173 C 324.725 265.173,324.556 265.415,324.556 265.712 C 324.556 266.323,323.053 269.029,322.608 269.219 C 322.447 269.287,322.316 269.628,322.316 269.977 C 322.316 270.325,321.979 270.852,321.569 271.148 C 321.158 271.445,320.822 271.901,320.822 272.164 C 320.822 272.426,320.233 273.264,319.514 274.027 C 318.796 274.789,318.207 275.548,318.207 275.714 C 318.207 276.190,307.839 286.461,307.359 286.461 C 307.123 286.461,306.458 286.965,305.882 287.582 C 305.307 288.198,304.604 288.702,304.321 288.702 C 304.038 288.702,303.564 289.038,303.268 289.449 C 302.972 289.860,302.462 290.196,302.136 290.196 C 301.809 290.196,301.206 290.490,300.797 290.850 C 299.785 291.739,298.730 292.415,297.946 292.678 C 297.586 292.799,297.292 293.046,297.292 293.228 C 297.292 293.409,296.956 293.557,296.545 293.557 C 296.134 293.557,295.798 293.725,295.798 293.931 C 295.798 294.136,295.462 294.304,295.051 294.304 C 294.641 294.304,294.304 294.472,294.304 294.678 C 294.304 294.883,293.884 295.051,293.371 295.051 C 292.857 295.051,292.437 295.219,292.437 295.425 C 292.437 295.630,292.027 295.798,291.525 295.798 C 291.024 295.798,290.510 295.966,290.383 296.172 C 290.256 296.377,289.826 296.545,289.427 296.545 C 289.028 296.545,288.702 296.713,288.702 296.919 C 288.702 297.124,288.198 297.292,287.582 297.292 C 286.965 297.292,286.461 297.460,286.461 297.666 C 286.461 297.871,285.967 298.039,285.363 298.039 C 284.759 298.039,284.161 298.207,284.034 298.413 C 283.907 298.618,283.066 298.786,282.166 298.786 C 281.266 298.786,280.426 298.954,280.299 299.160 C 280.172 299.365,279.238 299.533,278.223 299.533 C 277.208 299.533,276.377 299.688,276.377 299.878 C 276.377 300.594,268.600 300.718,208.217 300.963 L 146.218 301.214 142.670 304.660 C 140.719 306.556,139.001 308.236,138.854 308.395 C 138.706 308.554,136.985 310.280,135.029 312.232 C 133.073 314.183,131.114 316.138,130.677 316.575 C 130.240 317.012,128.285 318.967,126.334 320.918 C 124.382 322.870,122.469 324.781,122.083 325.165 C 121.696 325.549,119.885 327.376,118.058 329.225 C 116.232 331.074,114.257 333.037,113.671 333.588 C 110.284 336.772,109.057 338.394,109.057 339.688 L 109.057 340.990 192.530 340.990 C 247.930 340.990,276.004 340.864,276.004 340.616 C 276.004 340.397,277.311 340.243,279.178 340.243 C 281.046 340.243,282.353 340.089,282.353 339.869 C 282.353 339.664,283.160 339.496,284.146 339.496 C 285.132 339.496,286.098 339.343,286.293 339.157 C 286.488 338.970,287.488 338.727,288.515 338.616 C 291.519 338.293,293.176 337.943,293.396 337.587 C 293.509 337.404,294.170 337.255,294.865 337.255 C 295.559 337.255,296.232 337.087,296.359 336.881 C 296.485 336.676,297.084 336.508,297.688 336.508 C 298.292 336.508,298.786 336.340,298.786 336.134 C 298.786 335.929,299.212 335.761,299.732 335.761 C 300.252 335.761,300.774 335.509,300.892 335.201 C 301.025 334.855,301.592 334.641,302.374 334.641 C 303.071 334.641,303.641 334.472,303.641 334.267 C 303.641 334.062,304.146 333.894,304.762 333.894 C 305.378 333.894,305.882 333.725,305.882 333.520 C 305.882 333.315,306.218 333.147,306.629 333.147 C 307.040 333.147,307.376 332.979,307.376 332.773 C 307.376 332.568,307.880 332.400,308.497 332.400 C 309.113 332.400,309.617 332.232,309.617 332.026 C 309.617 331.821,309.953 331.653,310.364 331.653 C 310.775 331.653,311.111 331.485,311.111 331.279 C 311.111 331.074,311.531 330.906,312.045 330.906 C 312.558 330.906,312.979 330.738,312.979 330.532 C 312.979 330.327,313.315 330.159,313.725 330.159 C 314.136 330.159,314.472 329.991,314.472 329.785 C 314.472 329.580,314.809 329.412,315.219 329.412 C 315.630 329.412,315.966 329.244,315.966 329.038 C 315.966 328.833,316.303 328.665,316.713 328.665 C 317.124 328.665,317.460 328.528,317.460 328.360 C 317.460 328.193,318.049 327.776,318.768 327.433 C 319.486 327.090,320.075 326.639,320.075 326.430 C 320.075 326.221,320.411 326.050,320.822 326.050 C 321.232 326.050,321.569 325.882,321.569 325.677 C 321.569 325.472,321.868 325.303,322.233 325.303 C 322.599 325.303,323.140 324.967,323.436 324.556 C 323.732 324.146,324.236 323.810,324.556 323.810 C 324.877 323.810,325.381 323.473,325.677 323.063 C 325.973 322.652,326.428 322.316,326.689 322.316 C 327.127 322.316,328.039 321.681,329.240 320.542 C 329.511 320.285,329.870 320.074,330.039 320.074 C 330.536 320.074,332.400 318.345,332.400 317.884 C 332.400 317.651,332.668 317.460,332.997 317.460 C 333.325 317.460,334.065 316.956,334.641 316.340 C 335.216 315.724,335.804 315.219,335.948 315.219 C 336.091 315.219,336.679 314.715,337.255 314.099 C 337.831 313.483,338.444 312.977,338.619 312.976 C 338.793 312.975,340.280 311.541,341.923 309.790 C 343.567 308.039,345.794 305.691,346.872 304.572 C 347.951 303.453,348.833 302.366,348.833 302.156 C 348.833 301.946,349.001 301.774,349.206 301.774 C 349.412 301.774,349.580 301.509,349.580 301.185 C 349.580 300.860,350.252 299.949,351.074 299.160 C 351.895 298.370,352.568 297.525,352.568 297.282 C 352.568 297.039,352.988 296.509,353.501 296.105 C 354.015 295.701,354.435 295.131,354.435 294.838 C 354.435 294.544,354.603 294.304,354.809 294.304 C 355.014 294.304,355.182 294.052,355.182 293.744 C 355.182 293.436,355.350 293.184,355.556 293.184 C 355.761 293.184,355.929 292.885,355.929 292.519 C 355.929 292.154,356.265 291.613,356.676 291.317 C 357.087 291.020,357.423 290.556,357.423 290.285 C 357.423 290.013,357.759 289.431,358.170 288.990 C 358.581 288.549,358.917 287.967,358.917 287.698 C 358.917 287.429,359.085 287.208,359.290 287.208 C 359.496 287.208,359.664 286.882,359.664 286.483 C 359.664 286.085,359.832 285.654,360.037 285.528 C 360.243 285.401,360.411 284.971,360.411 284.572 C 360.411 284.173,360.579 283.847,360.784 283.847 C 360.990 283.847,361.158 283.529,361.158 283.140 C 361.158 282.751,361.410 282.336,361.718 282.218 C 362.026 282.100,362.278 281.746,362.278 281.431 C 362.278 281.116,362.446 280.859,362.652 280.859 C 362.857 280.859,363.025 280.623,363.025 280.334 C 363.025 279.882,363.540 278.692,364.939 275.915 C 365.119 275.559,365.266 274.928,365.266 274.515 C 365.266 274.101,365.434 273.763,365.640 273.763 C 365.845 273.763,366.013 273.424,366.013 273.011 C 366.013 272.597,366.181 271.925,366.387 271.517 C 366.592 271.109,366.928 270.441,367.134 270.033 C 367.339 269.625,367.507 268.869,367.507 268.352 C 367.507 267.836,367.675 267.414,367.880 267.414 C 368.086 267.414,368.254 266.909,368.254 266.293 C 368.254 265.677,368.422 265.173,368.627 265.173 C 368.833 265.173,369.001 264.510,369.001 263.701 C 369.001 262.891,369.169 262.125,369.374 261.998 C 369.580 261.871,369.748 261.119,369.748 260.327 C 369.748 259.534,369.942 258.821,370.179 258.742 C 370.632 258.591,371.170 255.983,371.491 252.381 C 371.596 251.200,371.835 250.233,372.022 250.233 C 372.209 250.233,372.362 248.983,372.362 247.454 C 372.362 245.926,372.530 244.571,372.736 244.444 C 373.220 244.145,373.248 225.584,372.764 225.584 C 372.574 225.584,372.335 224.281,372.231 222.689 C 372.128 221.097,371.872 218.786,371.662 217.554 C 371.453 216.321,371.113 214.307,370.908 213.079 C 370.704 211.850,370.359 210.786,370.142 210.713 C 369.925 210.641,369.748 210.018,369.748 209.328 C 369.748 208.638,369.580 207.970,369.374 207.843 C 369.169 207.716,369.001 207.034,369.001 206.327 C 369.001 205.620,368.833 205.042,368.627 205.042 C 368.422 205.042,368.254 204.464,368.254 203.757 C 368.254 203.050,368.086 202.368,367.880 202.241 C 367.675 202.114,367.507 201.684,367.507 201.285 C 367.507 200.886,367.339 200.560,367.134 200.560 C 366.928 200.560,366.760 199.972,366.760 199.253 C 366.760 198.534,366.592 197.946,366.387 197.946 C 366.181 197.946,366.013 197.610,366.013 197.199 C 366.013 196.788,365.845 196.452,365.640 196.452 C 365.434 196.452,365.266 195.948,365.266 195.331 C 365.266 194.715,365.098 194.211,364.893 194.211 C 364.687 194.211,364.519 193.875,364.519 193.464 C 364.519 193.053,364.351 192.717,364.146 192.717 C 363.940 192.717,363.772 192.213,363.772 191.597 C 363.772 190.980,363.604 190.476,363.399 190.476 C 363.193 190.476,363.025 190.238,363.025 189.946 C 363.025 189.280,361.814 187.120,361.438 187.117 C 361.284 187.116,361.158 186.779,361.158 186.368 C 361.158 185.957,360.990 185.621,360.784 185.621 C 360.579 185.621,360.411 185.401,360.411 185.131 C 360.411 184.862,360.075 184.281,359.664 183.840 C 359.253 183.399,358.917 182.695,358.917 182.275 C 358.917 181.856,358.749 181.513,358.543 181.513 C 358.338 181.513,358.170 181.214,358.170 180.848 C 358.170 180.483,357.834 179.941,357.423 179.645 C 357.012 179.349,356.676 178.808,356.676 178.442 C 356.676 178.077,356.508 177.778,356.303 177.778 C 356.097 177.778,355.929 177.568,355.928 177.311 C 355.928 177.054,355.424 176.256,354.809 175.537 C 354.193 174.818,353.690 174.043,353.689 173.815 C 353.689 173.587,353.268 173.085,352.754 172.699 C 352.241 172.314,351.821 171.769,351.821 171.490 C 351.821 171.210,351.317 170.510,350.700 169.935 C 350.084 169.359,349.580 168.733,349.580 168.544 C 349.580 168.266,346.826 165.048,345.579 163.867 C 345.417 163.714,342.816 161.151,339.799 158.172 C 336.782 155.192,334.119 152.754,333.880 152.754 C 333.641 152.754,332.975 152.250,332.400 151.634 C 331.824 151.018,331.167 150.514,330.939 150.514 C 330.712 150.514,329.998 150.009,329.353 149.393 C 328.708 148.777,328.045 148.273,327.879 148.273 C 327.714 148.273,327.158 147.852,326.645 147.339 C 326.131 146.825,325.488 146.405,325.216 146.405 C 324.944 146.405,324.479 146.069,324.183 145.658 C 323.887 145.247,323.346 144.911,322.980 144.911 C 322.615 144.911,322.316 144.743,322.316 144.538 C 322.316 144.332,322.056 144.164,321.740 144.164 C 321.423 144.164,320.803 143.828,320.362 143.417 C 319.921 143.007,319.256 142.670,318.884 142.670 C 318.512 142.670,318.207 142.502,318.207 142.297 C 318.207 142.092,317.871 141.923,317.460 141.923 C 317.049 141.923,316.713 141.755,316.713 141.550 C 316.713 141.345,316.377 141.176,315.966 141.176 C 315.556 141.176,315.219 141.008,315.219 140.803 C 315.219 140.598,314.883 140.430,314.472 140.430 C 314.062 140.430,313.725 140.274,313.725 140.083 C 313.725 139.685,311.616 138.562,310.867 138.562 C 310.590 138.562,310.364 138.394,310.364 138.189 C 310.364 137.983,310.028 137.815,309.617 137.815 C 309.206 137.815,308.870 137.647,308.870 137.442 C 308.870 137.236,308.544 137.068,308.145 137.068 C 307.747 137.068,307.316 136.900,307.190 136.695 C 307.063 136.489,306.548 136.321,306.047 136.321 C 305.546 136.321,305.135 136.153,305.135 135.948 C 305.135 135.742,304.725 135.574,304.224 135.574 C 303.722 135.574,303.208 135.406,303.081 135.201 C 302.954 134.995,302.440 134.827,301.939 134.827 C 301.437 134.827,301.027 134.659,301.027 134.454 C 301.027 134.248,300.355 134.080,299.533 134.080 C 298.711 134.080,298.039 133.912,298.039 133.707 C 298.039 133.501,297.535 133.333,296.919 133.333 C 296.303 133.333,295.798 133.165,295.798 132.960 C 295.798 132.754,295.042 132.586,294.118 132.586 C 293.193 132.586,292.437 132.418,292.437 132.213 C 292.437 132.007,291.783 131.839,290.983 131.839 C 290.035 131.839,289.454 131.644,289.314 131.279 C 289.163 130.885,288.548 130.719,287.242 130.719 C 286.221 130.719,285.281 130.551,285.154 130.345 C 285.027 130.140,283.935 129.972,282.726 129.972 C 281.518 129.972,280.426 129.804,280.299 129.599 C 280.146 129.352,257.737 129.227,214.264 129.232 L 148.459 129.238 144.533 133.247 " stroke="none" fill="#fafafa" fill-rule="evenodd"></path><path id="path1" d="M104.015 50.047 C 103.888 50.252,102.870 50.420,101.752 50.420 C 100.634 50.420,99.720 50.588,99.720 50.794 C 99.720 50.999,99.058 51.167,98.248 51.167 C 97.438 51.167,96.672 51.335,96.545 51.541 C 96.418 51.746,95.746 51.914,95.051 51.914 C 94.357 51.914,93.684 52.082,93.557 52.288 C 93.430 52.493,92.842 52.661,92.250 52.661 C 91.658 52.661,91.070 52.829,90.943 53.035 C 90.816 53.240,90.312 53.408,89.823 53.408 C 89.333 53.408,88.829 53.576,88.702 53.782 C 88.575 53.987,88.093 54.155,87.631 54.155 C 87.169 54.155,86.465 54.402,86.066 54.703 C 85.667 55.005,85.047 55.257,84.687 55.264 C 84.328 55.270,84.034 55.444,84.034 55.649 C 84.034 55.854,83.529 56.022,82.913 56.022 C 82.297 56.022,81.793 56.190,81.793 56.396 C 81.793 56.601,81.467 56.769,81.068 56.769 C 80.669 56.769,80.239 56.937,80.112 57.143 C 79.985 57.348,79.555 57.516,79.156 57.516 C 78.758 57.516,78.431 57.684,78.431 57.890 C 78.431 58.095,78.043 58.263,77.568 58.263 C 77.093 58.263,76.344 58.599,75.903 59.010 C 75.462 59.421,74.790 59.757,74.409 59.757 C 74.028 59.757,73.356 60.093,72.915 60.504 C 72.474 60.915,71.770 61.251,71.351 61.251 C 70.931 61.251,70.588 61.419,70.588 61.625 C 70.588 61.830,70.329 61.998,70.012 61.998 C 69.425 61.998,69.000 62.288,67.413 63.772 C 66.918 64.234,66.331 64.613,66.108 64.613 C 65.884 64.613,65.341 64.949,64.900 65.359 C 64.459 65.770,63.794 66.106,63.422 66.106 C 63.050 66.106,62.745 66.246,62.745 66.417 C 62.745 66.588,62.283 66.965,61.718 67.255 C 61.153 67.545,60.419 68.077,60.087 68.438 C 59.755 68.799,59.287 69.094,59.047 69.094 C 58.808 69.094,58.038 69.641,57.337 70.308 C 55.665 71.901,54.984 72.456,54.702 72.456 C 54.574 72.456,53.824 73.128,53.035 73.950 C 52.245 74.771,51.425 75.444,51.212 75.444 C 50.727 75.444,42.577 83.566,42.577 84.049 C 42.577 84.244,41.737 85.262,40.710 86.310 C 39.683 87.359,38.842 88.537,38.842 88.927 C 38.842 89.317,38.666 89.636,38.452 89.636 C 37.997 89.636,36.228 91.329,36.227 91.766 C 36.226 91.930,35.723 92.652,35.107 93.371 C 34.492 94.090,33.988 94.888,33.988 95.145 C 33.987 95.401,33.819 95.612,33.613 95.612 C 33.408 95.612,33.240 95.864,33.240 96.172 C 33.240 96.480,33.072 96.732,32.866 96.732 C 32.661 96.732,32.493 96.991,32.493 97.308 C 32.493 97.625,32.157 98.245,31.746 98.685 C 31.335 99.126,30.999 99.708,30.999 99.977 C 30.999 100.246,30.831 100.467,30.626 100.467 C 30.420 100.467,30.252 100.785,30.252 101.174 C 30.252 101.563,30.000 101.978,29.692 102.096 C 29.384 102.214,29.132 102.568,29.132 102.883 C 29.132 103.197,29.003 103.455,28.845 103.455 C 28.687 103.455,28.159 104.379,27.671 105.509 C 27.183 106.639,26.640 107.563,26.464 107.563 C 26.288 107.563,26.144 107.899,26.144 108.310 C 26.144 108.721,25.976 109.057,25.770 109.057 C 25.565 109.057,25.397 109.561,25.397 110.177 C 25.397 110.794,25.271 111.299,25.117 111.301 C 24.738 111.305,23.903 113.152,23.903 113.987 C 23.903 114.357,23.735 114.659,23.529 114.659 C 23.324 114.659,23.156 114.985,23.156 115.384 C 23.156 115.783,22.988 116.213,22.782 116.340 C 22.577 116.467,22.409 116.971,22.409 117.460 C 22.409 117.950,22.241 118.454,22.035 118.581 C 21.830 118.708,21.662 119.212,21.662 119.701 C 21.662 120.191,21.514 120.682,21.333 120.794 C 20.919 121.050,19.795 124.448,19.795 125.445 C 19.795 125.856,19.627 126.297,19.421 126.424 C 19.216 126.551,19.048 127.233,19.048 127.940 C 19.048 128.647,18.880 129.225,18.674 129.225 C 18.469 129.225,18.301 129.981,18.301 130.906 C 18.301 131.830,18.133 132.586,17.927 132.586 C 17.722 132.586,17.554 133.417,17.554 134.432 C 17.554 135.447,17.386 136.381,17.180 136.508 C 16.975 136.635,16.807 137.905,16.807 139.331 C 16.807 140.810,16.646 141.923,16.433 141.923 C 16.192 141.923,16.060 146.405,16.060 154.622 C 16.060 162.838,16.192 167.320,16.433 167.320 C 16.644 167.320,16.807 168.378,16.807 169.748 C 16.807 171.117,16.970 172.176,17.180 172.176 C 17.386 172.176,17.554 173.090,17.554 174.208 C 17.554 175.325,17.722 176.344,17.927 176.471 C 18.133 176.598,18.301 177.448,18.301 178.360 C 18.301 179.272,18.450 180.019,18.633 180.019 C 18.947 180.019,19.058 180.440,19.638 183.850 C 19.770 184.623,20.027 185.347,20.209 185.460 C 20.392 185.573,20.542 186.081,20.542 186.588 C 20.542 187.096,20.794 187.609,21.102 187.727 C 21.417 187.848,21.662 188.404,21.662 189.000 C 21.662 189.582,21.830 190.162,22.035 190.289 C 22.241 190.416,22.409 191.015,22.409 191.619 C 22.409 192.223,22.577 192.717,22.782 192.717 C 22.988 192.717,23.156 193.053,23.156 193.464 C 23.156 193.875,23.324 194.211,23.529 194.211 C 23.735 194.211,23.903 194.715,23.903 195.331 C 23.903 195.948,24.071 196.452,24.276 196.452 C 24.482 196.452,24.650 196.788,24.650 197.199 C 24.650 197.610,24.818 197.946,25.023 197.946 C 25.229 197.946,25.397 198.200,25.397 198.511 C 25.397 198.822,25.554 199.368,25.746 199.725 C 25.938 200.082,26.315 200.920,26.584 201.587 C 26.853 202.255,27.200 202.801,27.355 202.801 C 27.511 202.801,27.638 203.137,27.638 203.548 C 27.638 203.959,27.806 204.295,28.011 204.295 C 28.217 204.295,28.385 204.559,28.385 204.882 C 28.385 205.205,28.595 205.703,28.852 205.989 C 29.861 207.116,30.127 207.514,30.644 208.683 C 30.940 209.351,31.308 209.897,31.464 209.897 C 31.619 209.897,31.746 210.196,31.746 210.562 C 31.746 210.927,32.082 211.469,32.493 211.765 C 32.904 212.061,33.240 212.565,33.240 212.885 C 33.240 213.205,33.576 213.709,33.987 214.006 C 34.398 214.302,34.734 214.757,34.734 215.017 C 34.734 215.456,35.368 216.368,36.508 217.569 C 36.765 217.839,36.975 218.213,36.975 218.400 C 36.975 218.587,37.727 219.397,38.645 220.201 C 39.564 221.004,40.320 221.869,40.326 222.123 C 40.332 222.376,40.966 223.266,41.737 224.100 C 45.080 227.719,46.652 229.318,46.869 229.318 C 46.996 229.318,48.108 230.369,49.339 231.653 C 53.622 236.117,53.935 236.415,54.339 236.415 C 54.562 236.415,55.488 237.087,56.396 237.908 C 57.304 238.730,58.226 239.402,58.446 239.402 C 58.666 239.402,59.088 239.739,59.384 240.149 C 59.680 240.560,60.181 240.896,60.498 240.896 C 60.815 240.896,61.378 241.301,61.749 241.796 C 62.121 242.290,62.917 242.899,63.519 243.148 C 64.120 243.397,64.613 243.749,64.613 243.930 C 64.613 244.110,64.912 244.258,65.277 244.258 C 65.643 244.258,66.184 244.594,66.480 245.005 C 66.776 245.415,67.317 245.752,67.683 245.752 C 68.048 245.752,68.347 245.920,68.347 246.125 C 68.347 246.331,68.683 246.499,69.094 246.499 C 69.505 246.499,69.841 246.667,69.841 246.872 C 69.841 247.077,70.093 247.246,70.401 247.246 C 70.710 247.246,70.962 247.414,70.962 247.619 C 70.962 247.824,71.298 247.993,71.709 247.993 C 72.120 247.993,72.456 248.161,72.456 248.366 C 72.456 248.571,72.792 248.739,73.203 248.739 C 73.613 248.739,73.950 248.908,73.950 249.113 C 73.950 249.318,74.286 249.486,74.697 249.486 C 75.107 249.486,75.444 249.622,75.444 249.788 C 75.444 250.119,78.047 251.354,78.744 251.354 C 78.983 251.354,79.178 251.522,79.178 251.727 C 79.178 251.933,79.599 252.101,80.112 252.101 C 80.626 252.101,81.046 252.269,81.046 252.474 C 81.046 252.680,81.382 252.848,81.793 252.848 C 82.204 252.848,82.540 253.016,82.540 253.221 C 82.540 253.427,83.044 253.595,83.660 253.595 C 84.276 253.595,84.781 253.763,84.781 253.968 C 84.781 254.174,85.285 254.342,85.901 254.342 C 86.517 254.342,87.021 254.510,87.021 254.715 C 87.021 254.921,87.610 255.089,88.329 255.089 C 89.048 255.089,89.636 255.257,89.636 255.462 C 89.636 255.668,90.140 255.836,90.756 255.836 C 91.373 255.836,91.877 256.004,91.877 256.209 C 91.877 256.415,92.371 256.583,92.975 256.583 C 93.579 256.583,94.177 256.751,94.304 256.956 C 94.431 257.162,95.198 257.330,96.007 257.330 C 96.817 257.330,97.479 257.498,97.479 257.703 C 97.479 257.908,98.305 258.077,99.315 258.077 C 100.387 258.077,101.212 258.259,101.298 258.514 C 101.379 258.760,102.458 259.026,103.756 259.119 C 105.028 259.212,106.069 259.422,106.069 259.587 C 106.069 259.752,107.372 259.982,108.964 260.098 C 116.591 260.652,117.647 260.774,117.647 261.094 C 117.647 261.302,141.617 261.429,178.431 261.415 L 239.216 261.393 240.523 259.757 C 241.242 258.858,241.958 258.112,242.115 258.099 C 242.271 258.087,244.159 256.354,246.310 254.248 C 251.268 249.396,252.775 247.993,253.030 247.993 C 253.404 247.993,258.824 242.408,258.824 242.023 C 258.824 241.814,258.997 241.643,259.208 241.643 C 259.420 241.643,260.605 240.635,261.841 239.402 C 263.078 238.170,264.214 237.162,264.367 237.162 C 264.520 237.162,267.359 234.514,270.676 231.279 C 276.391 225.706,278.612 223.665,279.696 222.996 C 279.958 222.834,280.116 222.254,280.049 221.707 L 279.925 220.713 198.810 220.723 C 144.766 220.730,117.617 220.608,117.462 220.357 C 117.334 220.151,115.895 219.981,114.264 219.981 C 112.535 219.981,111.298 219.825,111.298 219.608 C 111.298 219.402,110.458 219.234,109.430 219.234 C 108.403 219.234,107.563 219.066,107.563 218.861 C 107.563 218.655,106.807 218.487,105.882 218.487 C 104.958 218.487,104.202 218.319,104.202 218.114 C 104.202 217.908,103.697 217.740,103.081 217.740 C 102.465 217.740,101.961 217.572,101.961 217.367 C 101.961 217.162,101.529 216.993,101.000 216.993 C 100.472 216.993,99.809 216.763,99.527 216.481 C 99.245 216.198,98.249 215.742,97.313 215.465 C 96.377 215.189,95.612 214.832,95.612 214.671 C 95.612 214.510,95.275 214.379,94.865 214.379 C 94.454 214.379,94.118 214.211,94.118 214.006 C 94.118 213.800,93.782 213.632,93.371 213.632 C 92.960 213.632,92.624 213.464,92.624 213.259 C 92.624 213.053,92.288 212.885,91.877 212.885 C 91.466 212.885,91.130 212.717,91.130 212.512 C 91.130 212.306,90.804 212.138,90.405 212.138 C 90.006 212.138,89.576 211.970,89.449 211.765 C 89.322 211.559,88.929 211.391,88.576 211.391 C 88.222 211.391,87.691 211.055,87.395 210.644 C 87.099 210.233,86.595 209.897,86.275 209.897 C 85.954 209.897,85.450 209.561,85.154 209.150 C 84.858 208.739,84.476 208.403,84.304 208.403 C 84.133 208.403,83.456 207.890,82.800 207.262 C 82.143 206.634,81.118 205.860,80.523 205.542 C 79.591 205.045,72.082 197.760,72.082 197.353 C 72.082 197.162,70.990 195.834,69.935 194.741 C 69.472 194.263,69.094 193.679,69.094 193.444 C 69.094 193.209,68.590 192.546,67.974 191.970 C 67.358 191.394,66.853 190.686,66.853 190.397 C 66.853 190.107,66.517 189.509,66.106 189.068 C 65.696 188.627,65.359 188.007,65.359 187.691 C 65.359 187.374,65.191 187.115,64.986 187.115 C 64.781 187.115,64.613 186.857,64.613 186.543 C 64.613 186.228,64.360 185.874,64.052 185.756 C 63.744 185.638,63.492 185.223,63.492 184.834 C 63.492 184.445,63.324 184.127,63.119 184.127 C 62.913 184.127,62.745 183.791,62.745 183.380 C 62.745 182.969,62.577 182.633,62.372 182.633 C 62.166 182.633,61.998 182.213,61.998 181.699 C 61.998 181.186,61.830 180.766,61.625 180.766 C 61.419 180.766,61.251 180.261,61.251 179.645 C 61.251 179.029,61.083 178.525,60.878 178.525 C 60.672 178.525,60.504 178.189,60.504 177.778 C 60.504 177.367,60.336 177.031,60.131 177.031 C 59.925 177.031,59.757 176.527,59.757 175.910 C 59.757 175.294,59.589 174.790,59.384 174.790 C 59.178 174.790,59.010 174.118,59.010 173.296 C 59.010 172.474,58.842 171.802,58.637 171.802 C 58.431 171.802,58.263 171.214,58.263 170.495 C 58.263 169.776,58.095 169.188,57.890 169.188 C 57.684 169.188,57.516 168.217,57.516 167.021 C 57.516 165.830,57.361 164.696,57.172 164.500 C 56.341 163.645,56.068 152.711,56.747 147.526 C 56.975 145.780,57.257 143.385,57.373 142.204 C 57.488 141.022,57.736 140.056,57.923 140.056 C 58.110 140.056,58.263 139.384,58.263 138.562 C 58.263 137.740,58.431 137.068,58.637 137.068 C 58.842 137.068,59.010 136.574,59.010 135.970 C 59.010 135.366,59.178 134.767,59.384 134.641 C 59.589 134.514,59.757 133.915,59.757 133.311 C 59.757 132.707,59.925 132.213,60.131 132.213 C 60.336 132.213,60.504 131.803,60.504 131.301 C 60.504 130.800,60.672 130.286,60.878 130.159 C 61.083 130.032,61.251 129.602,61.251 129.203 C 61.251 128.804,61.419 128.478,61.625 128.478 C 61.830 128.478,61.998 128.142,61.998 127.731 C 61.998 127.320,62.166 126.984,62.372 126.984 C 62.577 126.984,62.745 126.658,62.745 126.259 C 62.745 125.860,62.913 125.430,63.119 125.303 C 63.324 125.177,63.492 124.818,63.492 124.508 C 63.492 124.197,63.702 123.709,63.959 123.422 C 65.121 122.127,65.359 121.750,65.359 121.211 C 65.359 120.894,65.499 120.635,65.670 120.635 C 65.841 120.635,66.219 120.173,66.510 119.608 C 66.802 119.043,67.334 118.255,67.694 117.857 C 68.053 117.459,68.347 116.912,68.347 116.643 C 68.347 116.374,68.515 116.153,68.721 116.153 C 68.926 116.153,69.094 115.938,69.094 115.675 C 69.094 115.413,69.430 114.955,69.841 114.659 C 70.252 114.363,70.588 113.928,70.588 113.693 C 70.588 113.170,80.164 103.455,80.679 103.455 C 80.881 103.455,81.046 103.287,81.046 103.081 C 81.046 102.876,81.273 102.708,81.551 102.708 C 81.828 102.708,82.583 102.204,83.228 101.587 C 83.873 100.971,84.617 100.467,84.881 100.467 C 85.146 100.467,85.605 100.131,85.901 99.720 C 86.197 99.309,86.662 98.973,86.933 98.973 C 87.396 98.973,87.788 98.715,89.062 97.572 C 89.348 97.316,89.763 97.106,89.983 97.106 C 90.203 97.106,90.383 96.937,90.383 96.732 C 90.383 96.527,90.719 96.359,91.130 96.359 C 91.541 96.359,91.877 96.190,91.877 95.985 C 91.877 95.780,92.213 95.612,92.624 95.612 C 93.035 95.612,93.371 95.444,93.371 95.238 C 93.371 95.033,93.707 94.865,94.118 94.865 C 94.528 94.865,94.865 94.697,94.865 94.491 C 94.865 94.286,95.369 94.118,95.985 94.118 C 96.601 94.118,97.106 93.950,97.106 93.744 C 97.106 93.539,97.432 93.371,97.830 93.371 C 98.229 93.371,98.659 93.203,98.786 92.997 C 98.913 92.792,99.417 92.624,99.907 92.624 C 100.396 92.624,100.900 92.456,101.027 92.250 C 101.154 92.045,101.752 91.877,102.356 91.877 C 102.960 91.877,103.455 91.709,103.455 91.503 C 103.455 91.298,103.959 91.130,104.575 91.130 C 105.191 91.130,105.696 90.977,105.696 90.791 C 105.696 90.604,106.578 90.364,107.656 90.257 C 111.604 89.865,114.847 89.260,114.969 88.892 C 115.053 88.641,136.267 88.515,178.747 88.515 L 242.399 88.515 246.316 84.598 C 248.471 82.444,250.233 80.511,250.233 80.303 C 250.233 80.095,250.403 79.925,250.611 79.925 C 251.104 79.925,258.824 72.206,258.824 71.713 C 258.824 71.505,258.994 71.335,259.201 71.335 C 259.695 71.335,267.414 63.616,267.414 63.123 C 267.414 62.915,267.584 62.745,267.792 62.745 C 268.185 62.745,275.257 55.825,275.257 55.440 C 275.257 55.154,276.260 54.155,276.547 54.155 C 277.034 54.155,280.112 50.777,280.112 50.243 C 280.112 49.549,104.444 49.353,104.015 50.047 " stroke="none" fill="#94d423" fill-rule="evenodd"></path><path id="path2" d="" stroke="none" fill="#c8e6b00" fill-rule="evenodd"></path><path id="path3" d="" stroke="none" fill="#c8e6b00" fill-rule="evenodd"></path><path id="path4" d="" stroke="none" fill="#c8e6b00" fill-rule="evenodd"></path></g></svg>